# xmcd
#
# Track frame offsets:
#	150
#	14895
#	29705
#	44915
#	61635
#	81120
#	96427
#	114232
#	128980
#	146470
#
# Disc length: 2163 seconds
#
# Revision: 1
# Processed by: cddbd v1.5.1PL0 Copyright (c) Steve Scherf et al.
# Submitted via: CDex 1.50Beta5
#
DISCID=8f08710a
DTITLE=影山ヒロノブ - ドラゴンボールZヒット曲集14-ストレート-
DYEAR=1993
DGENRE=
TTITLE0=影山ヒロノブ/CHA-LA HEAD-CHA-LA
TTITLE1=影山ヒロノブ/バーニング・ファイト
TTITLE2=KUKO/水色星人
TTITLE3=KUKO/空めぐる冒険
TTITLE4=影山ヒロノブ/何かが…
TTITLE5=YUKA/ラブ・ジェット
TTITLE6=YUKA/トリックスターと帰って来た未来
TTITLE7=石原慎一/僕は,まっすぐ 道は,まっすぐ
TTITLE8=KUKO/マザー・ユニバース
TTITLE9=MANNA/でてこいとびきりZENKAIパワー!
EXTD=
EXTT0=
EXTT1=
EXTT2=
EXTT3=
EXTT4=
EXTT5=
EXTT6=
EXTT7=
EXTT8=
EXTT9=
PLAYORDER=
